G75*
%MOIN*%
%OFA0B0*%
%FSLAX25Y25*%
%IPPOS*%
%LPD*%
%AMOC8*
5,1,8,0,0,1.08239X$1,22.5*
%
%ADD10C,0.10000*%
%ADD11C,0.06000*%
%ADD12C,0.09450*%
%ADD13C,0.06600*%
%ADD14OC8,0.15000*%
%ADD15C,0.02000*%
D10*
X0050291Y0246000D02*
X0050291Y0256000D01*
X0070764Y0256000D02*
X0070764Y0246000D01*
X0091236Y0246000D02*
X0091236Y0256000D01*
X0111709Y0256000D02*
X0111709Y0246000D01*
X0130291Y0246000D02*
X0130291Y0256000D01*
X0150764Y0256000D02*
X0150764Y0246000D01*
X0171236Y0246000D02*
X0171236Y0256000D01*
X0191709Y0256000D02*
X0191709Y0246000D01*
D11*
X0171000Y0179000D02*
X0171000Y0173000D01*
X0171000Y0119000D02*
X0171000Y0113000D01*
X0019000Y0126000D02*
X0013000Y0126000D01*
X0013000Y0136000D02*
X0019000Y0136000D01*
X0019000Y0146000D02*
X0013000Y0146000D01*
D12*
X0221275Y0190300D02*
X0230725Y0190300D01*
X0237075Y0174600D02*
X0246525Y0174600D01*
X0246525Y0206000D02*
X0237075Y0206000D01*
X0237075Y0101000D02*
X0246525Y0101000D01*
X0230725Y0085300D02*
X0221275Y0085300D01*
X0237075Y0069600D02*
X0246525Y0069600D01*
D13*
X0129300Y0101000D02*
X0122700Y0101000D01*
X0122700Y0111000D02*
X0129300Y0111000D01*
X0129300Y0121000D02*
X0122700Y0121000D01*
X0122700Y0131000D02*
X0129300Y0131000D01*
X0129300Y0141000D02*
X0122700Y0141000D01*
X0122700Y0151000D02*
X0129300Y0151000D01*
X0129300Y0161000D02*
X0122700Y0161000D01*
X0122700Y0171000D02*
X0129300Y0171000D01*
X0099300Y0171000D02*
X0092700Y0171000D01*
X0092700Y0161000D02*
X0099300Y0161000D01*
X0099300Y0151000D02*
X0092700Y0151000D01*
X0092700Y0141000D02*
X0099300Y0141000D01*
X0099300Y0131000D02*
X0092700Y0131000D01*
X0092700Y0121000D02*
X0099300Y0121000D01*
X0099300Y0111000D02*
X0092700Y0111000D01*
X0092700Y0101000D02*
X0099300Y0101000D01*
D14*
X0091000Y0036000D03*
X0056000Y0036000D03*
X0131000Y0036000D03*
X0186000Y0036000D03*
D15*
X0051400Y0024800D02*
X0016400Y0059800D01*
X0016400Y0125600D01*
X0016000Y0126000D01*
X0015000Y0127000D01*
X0012200Y0127000D01*
X0006600Y0132600D01*
X0006600Y0206800D01*
X0050000Y0250200D01*
X0050291Y0251000D01*
X0062600Y0246000D02*
X0062600Y0260000D01*
X0066800Y0264200D01*
X0099000Y0264200D01*
X0111600Y0251600D01*
X0111709Y0251000D01*
X0113000Y0250200D01*
X0121400Y0241800D01*
X0121400Y0170400D01*
X0126000Y0171000D01*
X0125600Y0170400D01*
X0122800Y0170400D01*
X0115800Y0163400D01*
X0115800Y0157800D01*
X0099000Y0141000D01*
X0096000Y0141000D01*
X0092000Y0148000D02*
X0090600Y0148000D01*
X0086400Y0143800D01*
X0086400Y0079400D01*
X0110200Y0055600D01*
X0170400Y0115800D01*
X0171000Y0116000D01*
X0171800Y0117200D01*
X0184400Y0117200D01*
X0200500Y0133300D01*
X0142400Y0191400D01*
X0142400Y0260000D01*
X0146600Y0264200D01*
X0155000Y0264200D01*
X0167600Y0251600D01*
X0170400Y0251600D01*
X0171236Y0251000D01*
X0180200Y0246000D02*
X0180200Y0258600D01*
X0171800Y0267000D01*
X0145200Y0267000D01*
X0129800Y0251600D01*
X0130291Y0251000D01*
X0131200Y0250200D01*
X0131200Y0178800D01*
X0136800Y0173200D01*
X0136800Y0138200D01*
X0129800Y0131200D01*
X0127000Y0131200D01*
X0126000Y0131000D01*
X0125600Y0129800D01*
X0121400Y0129800D01*
X0115800Y0124200D01*
X0115800Y0117200D01*
X0100400Y0101800D01*
X0096200Y0101800D01*
X0096000Y0101000D01*
X0083600Y0068200D02*
X0129800Y0022000D01*
X0211000Y0022000D01*
X0254400Y0065400D01*
X0254400Y0073800D01*
X0250200Y0078000D01*
X0225000Y0078000D01*
X0225000Y0085000D01*
X0226000Y0085300D01*
X0226400Y0086400D01*
X0226400Y0142400D01*
X0254400Y0170400D01*
X0254400Y0178800D01*
X0243200Y0190000D01*
X0226400Y0190000D01*
X0226000Y0190300D01*
X0225000Y0190000D01*
X0211000Y0176000D01*
X0171000Y0176000D01*
X0170400Y0176000D01*
X0150800Y0195600D01*
X0150800Y0250200D01*
X0150764Y0251000D01*
X0131200Y0269800D02*
X0113000Y0251600D01*
X0111709Y0251000D01*
X0108800Y0233400D02*
X0092000Y0250200D01*
X0091236Y0251000D01*
X0108800Y0233400D02*
X0108800Y0160600D01*
X0100400Y0152200D01*
X0096200Y0152200D01*
X0096000Y0151000D01*
X0094800Y0150800D01*
X0092000Y0148000D01*
X0083600Y0152200D02*
X0083600Y0068200D01*
X0110200Y0055600D02*
X0129800Y0036000D01*
X0131000Y0036000D01*
X0131200Y0036000D01*
X0142400Y0024800D01*
X0190000Y0024800D01*
X0234800Y0069600D01*
X0241800Y0069600D01*
X0257200Y0064000D02*
X0212400Y0019200D01*
X0108800Y0019200D01*
X0092000Y0036000D01*
X0091000Y0036000D01*
X0071000Y0036000D01*
X0059800Y0024800D01*
X0051400Y0024800D01*
X0055600Y0036000D02*
X0056000Y0036000D01*
X0055600Y0036000D02*
X0055600Y0136800D01*
X0016400Y0136800D01*
X0016000Y0136000D01*
X0016000Y0146000D02*
X0016400Y0146600D01*
X0016400Y0199800D01*
X0062600Y0246000D01*
X0071000Y0250200D02*
X0070764Y0251000D01*
X0071000Y0250200D02*
X0106000Y0215200D01*
X0106000Y0167600D01*
X0100400Y0162000D01*
X0096200Y0162000D01*
X0096000Y0161000D01*
X0094800Y0160600D01*
X0092000Y0160600D01*
X0083600Y0152200D01*
X0092000Y0170400D02*
X0094800Y0170400D01*
X0096000Y0171000D01*
X0092000Y0170400D02*
X0058400Y0136800D01*
X0055600Y0136800D01*
X0180200Y0246000D02*
X0219400Y0206800D01*
X0241800Y0206800D01*
X0241800Y0206000D01*
X0241800Y0205400D01*
X0257200Y0190000D01*
X0257200Y0169000D01*
X0241800Y0153600D01*
X0241800Y0101000D01*
X0241800Y0090600D01*
X0257200Y0075200D01*
X0257200Y0064000D01*
X0225000Y0073800D02*
X0187200Y0036000D01*
X0186000Y0036000D01*
X0225000Y0073800D02*
X0225000Y0078000D01*
X0200500Y0133300D02*
X0241800Y0174600D01*
X0191709Y0251000D02*
X0191400Y0251600D01*
X0173200Y0269800D01*
X0131200Y0269800D01*
M02*
