%
M48
M72
T01C0.04000
T02C0.04400
T03C0.05500
T04C0.05906
T05C0.06300
T06C0.11811
%
T01
X16000Y126000
X16000Y136000
X16000Y146000
X171000Y116000
X171000Y176000
T02
X126000Y171000
X126000Y161000
X126000Y151000
X126000Y141000
X126000Y131000
X126000Y121000
X126000Y111000
X126000Y101000
X96000Y101000
X96000Y111000
X96000Y121000
X96000Y131000
X96000Y141000
X96000Y151000
X96000Y161000
X96000Y171000
T03
X91000Y36000
X56000Y36000
X131000Y36000
X186000Y36000
T04
X191709Y251000
X171236Y251000
X150764Y251000
X130291Y251000
X111709Y251000
X91236Y251000
X70764Y251000
X50291Y251000
T05
X226000Y190300
X241800Y174600
X241800Y206000
X241800Y101000
X226000Y85300
X241800Y69600
T06
X20685Y20685
X256906Y20685
X256906Y256906
X20685Y256906
M30
