G75*
%MOIN*%
%OFA0B0*%
%FSLAX25Y25*%
%IPPOS*%
%LPD*%
%AMOC8*
5,1,8,0,0,1.08239X$1,22.5*
%
%ADD10C,0.12611*%
%ADD11C,0.10800*%
%ADD12C,0.06800*%
%ADD13C,0.10250*%
%ADD14C,0.07400*%
%ADD15OC8,0.15800*%
D10*
X0020685Y0020685D03*
X0256906Y0020685D03*
X0256906Y0256906D03*
X0020685Y0256906D03*
D11*
X0050291Y0256000D02*
X0050291Y0246000D01*
X0070764Y0246000D02*
X0070764Y0256000D01*
X0091236Y0256000D02*
X0091236Y0246000D01*
X0111709Y0246000D02*
X0111709Y0256000D01*
X0130291Y0256000D02*
X0130291Y0246000D01*
X0150764Y0246000D02*
X0150764Y0256000D01*
X0171236Y0256000D02*
X0171236Y0246000D01*
X0191709Y0246000D02*
X0191709Y0256000D01*
D12*
X0171000Y0179000D02*
X0171000Y0173000D01*
X0171000Y0119000D02*
X0171000Y0113000D01*
X0019000Y0126000D02*
X0013000Y0126000D01*
X0013000Y0136000D02*
X0019000Y0136000D01*
X0019000Y0146000D02*
X0013000Y0146000D01*
D13*
X0221275Y0190300D02*
X0230725Y0190300D01*
X0237075Y0174600D02*
X0246525Y0174600D01*
X0246525Y0206000D02*
X0237075Y0206000D01*
X0237075Y0101000D02*
X0246525Y0101000D01*
X0230725Y0085300D02*
X0221275Y0085300D01*
X0237075Y0069600D02*
X0246525Y0069600D01*
D14*
X0129300Y0101000D02*
X0122700Y0101000D01*
X0122700Y0111000D02*
X0129300Y0111000D01*
X0129300Y0121000D02*
X0122700Y0121000D01*
X0122700Y0131000D02*
X0129300Y0131000D01*
X0129300Y0141000D02*
X0122700Y0141000D01*
X0122700Y0151000D02*
X0129300Y0151000D01*
X0129300Y0161000D02*
X0122700Y0161000D01*
X0122700Y0171000D02*
X0129300Y0171000D01*
X0099300Y0171000D02*
X0092700Y0171000D01*
X0092700Y0161000D02*
X0099300Y0161000D01*
X0099300Y0151000D02*
X0092700Y0151000D01*
X0092700Y0141000D02*
X0099300Y0141000D01*
X0099300Y0131000D02*
X0092700Y0131000D01*
X0092700Y0121000D02*
X0099300Y0121000D01*
X0099300Y0111000D02*
X0092700Y0111000D01*
X0092700Y0101000D02*
X0099300Y0101000D01*
D15*
X0091000Y0036000D03*
X0056000Y0036000D03*
X0131000Y0036000D03*
X0186000Y0036000D03*
M02*
